<svg xmlns="http://www.w3.org/2000/svg" viewBox="0 0 64 64" fill="none">
  <!-- Background circle -->
  <circle cx="32" cy="32" r="30" fill="url(#gradient)"/>

  <!-- Rain drop / Data point -->
  <path d="M32 14C32 14 22 28 22 36C22 41.5228 26.4772 46 32 46C37.5228 46 42 41.5228 42 36C42 28 32 14 32 14Z" fill="white" opacity="0.95"/>

  <!-- Signal waves (IoT representation) -->
  <path d="M18 48C18 48 24 44 32 44C40 44 46 48 46 48" stroke="white" stroke-width="2" stroke-linecap="round" opacity="0.6"/>
  <path d="M14 52C14 52 22 46 32 46C42 46 50 52 50 52" stroke="white" stroke-width="2" stroke-linecap="round" opacity="0.4"/>

  <!-- Center data point -->
  <circle cx="32" cy="36" r="4" fill="url(#gradient)" opacity="0.9"/>

  <defs>
    <linearGradient id="gradient" x1="0%" y1="0%" x2="100%" y2="100%">
      <stop offset="0%" style="stop-color:#10b981"/>
      <stop offset="100%" style="stop-color:#06b6d4"/>
    </linearGradient>
  </defs>
</svg>
